<svg xmlns="http://www.w3.org/2000/svg" xmlns:xlink="http://www.w3.org/1999/xlink" id="_3videnZ" data-name="3videnZ" width="23.223" height="32" viewBox="0 0 23.223 32"><defs><linearGradient id="linear-gradient" x1="0.5" x2="0.5" y2="1" gradientUnits="objectBoundingBox"><stop offset="0" stop-color="#00b7ff"></stop><stop offset="1" stop-color="#42e8e0"></stop></linearGradient></defs><path id="Trac&#xE9;_28720_-_Contour" data-name="Trac&#xE9; 28720 - Contour" d="M33.111,23.982a.828.828,0,0,1,.416.112l10.778,6.3a.821.821,0,0,1,.175.136.839.839,0,0,1,.242.593V43.709a.845.845,0,0,1-.417.73L38.2,48.007V55.14a.833.833,0,0,1-1.249.729l-3.836-2.241-3.837,2.24a.826.826,0,0,1-.416.113.842.842,0,0,1-.835-.839V48l-6.106-3.567a.845.845,0,0,1-.416-.73V31.119a.846.846,0,0,1,.416-.73l10.779-6.3A.829.829,0,0,1,33.111,23.982Zm9.114,7.138L33.111,25.8,24,31.119l2.592,1.514L32.7,29.068a.839.839,0,0,1,.832,0l6.106,3.565Zm-4.257,2.487L33.111,30.77l-4.856,2.836,4.856,2.836Zm5.09,9.616V32.579l-2.59,1.513v7.132a.852.852,0,0,1-.245.6.826.826,0,0,1-.175.135l-6.1,3.565v6.649l2.587,1.512V47.52a.847.847,0,0,1,.416-.729Zm-17.3-9.13-2.59-1.513V43.222l6.109,3.568a.843.843,0,0,1,.414.8v6.093l2.591-1.512V45.52l-6.106-3.566a.846.846,0,0,1-.416-.73ZM32.279,37.9l-4.857-2.836v5.673l4.857,2.836ZM38.8,40.739V35.067L33.944,37.9v5.672Z" transform="translate(-21.5 -23.982)" fill="url(#linear-gradient)"></path></svg>